<svg width="680" height="680" viewBox="0 0 680 680" role="img" xmlns="http://www.w3.org/2000/svg">
  <title>ASD Tech Creation — Web &amp; Android Logo</title>
  <desc>Circular logo for ASD Tech Creation with web browser and Android tech iconography</desc>
  <defs>
    <style>
      .bg-main { fill: #1a1a2e; }
      .bg-inner { fill: #16213e; }
      .bg-core { fill: #0f3460; }
      .ring1 { fill: none; stroke: #4ade80; stroke-width: 3; }
      .ring2 { fill: none; stroke: #22d3ee; stroke-width: 1.5; }
      .ring3 { fill: none; stroke: #4ade80; stroke-width: 0.8; opacity: 0.4; }
      .tick-maj { stroke: #4ade80; stroke-width: 2; stroke-linecap: round; }
      .tick-min { stroke: #22d3ee; stroke-width: 1; stroke-linecap: round; opacity: 0.5; }
      .dot-green { fill: #4ade80; }
      .dot-cyan { fill: #22d3ee; }
      .hex { fill: none; stroke: #22d3ee; stroke-width: 0.6; opacity: 0.25; }
    </style>
  </defs>

  <!-- Main background circle -->
  <circle cx="340" cy="340" r="300" class="bg-main"/>

  <!-- Hex grid texture -->
  <polygon points="340,100 358,110 358,130 340,140 322,130 322,110" class="hex"/>
  <polygon points="376,120 394,130 394,150 376,160 358,150 358,130" class="hex"/>
  <polygon points="304,120 322,130 322,150 304,160 286,150 286,130" class="hex"/>
  <polygon points="394,158 412,168 412,188 394,198 376,188 376,168" class="hex"/>
  <polygon points="286,158 304,168 304,188 286,198 268,188 268,168" class="hex"/>
  <polygon points="340,530 358,540 358,560 340,570 322,560 322,540" class="hex"/>
  <polygon points="376,510 394,520 394,540 376,550 358,540 358,520" class="hex"/>
  <polygon points="304,510 322,520 322,540 304,550 286,540 286,520" class="hex"/>

  <!-- Outer glow ring -->
  <circle cx="340" cy="340" r="298" class="ring3"/>

  <!-- Segmented outer ring arcs -->
  <path d="M340 45 A295 295 0 0 1 635 340" fill="none" stroke="#22d3ee" stroke-width="6" stroke-linecap="round"/>
  <path d="M635 340 A295 295 0 0 1 340 635" fill="none" stroke="#4ade80" stroke-width="6" stroke-linecap="round"/>
  <path d="M340 635 A295 295 0 0 1 45 340" fill="none" stroke="#4ade80" stroke-width="6" stroke-linecap="round" opacity="0.5"/>
  <path d="M45 340 A295 295 0 0 1 340 45" fill="none" stroke="#22d3ee" stroke-width="6" stroke-linecap="round" opacity="0.5"/>

  <!-- Tick marks -->
  <g transform="rotate(0,340,340)"><line x1="340" y1="47" x2="340" y2="68" class="tick-maj"/></g>
  <g transform="rotate(45,340,340)"><line x1="340" y1="47" x2="340" y2="60" class="tick-min"/></g>
  <g transform="rotate(90,340,340)"><line x1="340" y1="47" x2="340" y2="68" class="tick-maj"/></g>
  <g transform="rotate(135,340,340)"><line x1="340" y1="47" x2="340" y2="60" class="tick-min"/></g>
  <g transform="rotate(180,340,340)"><line x1="340" y1="47" x2="340" y2="68" class="tick-maj"/></g>
  <g transform="rotate(225,340,340)"><line x1="340" y1="47" x2="340" y2="60" class="tick-min"/></g>
  <g transform="rotate(270,340,340)"><line x1="340" y1="47" x2="340" y2="68" class="tick-maj"/></g>
  <g transform="rotate(315,340,340)"><line x1="340" y1="47" x2="340" y2="60" class="tick-min"/></g>
  <g transform="rotate(30,340,340)"><line x1="340" y1="47" x2="340" y2="57" class="tick-min"/></g>
  <g transform="rotate(60,340,340)"><line x1="340" y1="47" x2="340" y2="57" class="tick-min"/></g>
  <g transform="rotate(120,340,340)"><line x1="340" y1="47" x2="340" y2="57" class="tick-min"/></g>
  <g transform="rotate(150,340,340)"><line x1="340" y1="47" x2="340" y2="57" class="tick-min"/></g>
  <g transform="rotate(210,340,340)"><line x1="340" y1="47" x2="340" y2="57" class="tick-min"/></g>
  <g transform="rotate(240,340,340)"><line x1="340" y1="47" x2="340" y2="57" class="tick-min"/></g>
  <g transform="rotate(300,340,340)"><line x1="340" y1="47" x2="340" y2="57" class="tick-min"/></g>
  <g transform="rotate(330,340,340)"><line x1="340" y1="47" x2="340" y2="57" class="tick-min"/></g>

  <!-- Cardinal dots -->
  <circle cx="340" cy="47" r="5" class="dot-cyan"/>
  <circle cx="633" cy="340" r="5" class="dot-green"/>
  <circle cx="340" cy="633" r="5" class="dot-green"/>
  <circle cx="47" cy="340" r="5" class="dot-cyan"/>

  <!-- Mid ring -->
  <circle cx="340" cy="340" r="265" class="ring2"/>

  <!-- Inner background -->
  <circle cx="340" cy="340" r="240" class="bg-inner"/>

  <!-- Core circle -->
  <circle cx="340" cy="340" r="195" class="bg-core"/>
  <circle cx="340" cy="340" r="193" fill="none" stroke="#4ade80" stroke-width="1" opacity="0.6"/>

  <!-- Browser window -->
  <rect x="195" y="196" width="110" height="82" rx="6" fill="#0f3460" stroke="#22d3ee" stroke-width="2"/>
  <rect x="195" y="196" width="110" height="18" rx="6" fill="#22d3ee" opacity="0.9"/>
  <rect x="195" y="205" width="110" height="9" fill="#22d3ee" opacity="0.9"/>
  <circle cx="207" cy="205" r="3" fill="#1a1a2e"/>
  <circle cx="216" cy="205" r="3" fill="#1a1a2e"/>
  <circle cx="225" cy="205" r="3" fill="#1a1a2e"/>
  <line x1="205" y1="228" x2="295" y2="228" stroke="#4ade80" stroke-width="1.5" opacity="0.8"/>
  <line x1="205" y1="240" x2="275" y2="240" stroke="#94a3b8" stroke-width="1" opacity="0.6"/>
  <line x1="205" y1="252" x2="285" y2="252" stroke="#94a3b8" stroke-width="1" opacity="0.6"/>
  <line x1="205" y1="264" x2="260" y2="264" stroke="#94a3b8" stroke-width="1" opacity="0.6"/>
  <text x="250" y="296" text-anchor="middle" font-family="Arial, sans-serif" font-size="11" font-weight="700" fill="#22d3ee" letter-spacing="3">WEB</text>

  <!-- Android robot -->
  <rect x="378" y="214" width="74" height="56" rx="16" fill="#0f3460" stroke="#4ade80" stroke-width="2"/>
  <line x1="393" y1="214" x2="383" y2="200" stroke="#4ade80" stroke-width="2" stroke-linecap="round"/>
  <circle cx="382" cy="198" r="3" fill="#4ade80"/>
  <line x1="437" y1="214" x2="447" y2="200" stroke="#4ade80" stroke-width="2" stroke-linecap="round"/>
  <circle cx="448" cy="198" r="3" fill="#4ade80"/>
  <circle cx="402" cy="238" r="5" fill="#4ade80"/>
  <circle cx="428" cy="238" r="5" fill="#4ade80"/>
  <rect x="380" y="276" width="70" height="8" rx="4" fill="#4ade80" opacity="0.5"/>
  <text x="415" y="296" text-anchor="middle" font-family="Arial, sans-serif" font-size="11" font-weight="700" fill="#4ade80" letter-spacing="2">ANDROID</text>

  <!-- Center divider -->
  <line x1="180" y1="330" x2="500" y2="330" stroke="#22d3ee" stroke-width="0.8" opacity="0.4"/>

  <!-- ASD Main Text -->
  <text x="340" y="390" text-anchor="middle" font-family="Arial Black, Arial, sans-serif" font-size="90" font-weight="900" fill="#f1f5f9" letter-spacing="6">ASD</text>

  <!-- Bottom label -->
  <line x1="185" y1="415" x2="495" y2="415" stroke="#4ade80" stroke-width="1" opacity="0.5"/>
  <text x="340" y="440" text-anchor="middle" font-family="Arial, sans-serif" font-size="14" font-weight="700" fill="#22d3ee" letter-spacing="5">TECH CREATION</text>

  <!-- Dot row -->
  <circle cx="300" cy="460" r="2.5" fill="#22d3ee"/>
  <circle cx="320" cy="460" r="2.5" fill="#4ade80"/>
  <circle cx="340" cy="460" r="2.5" fill="#22d3ee"/>
  <circle cx="360" cy="460" r="2.5" fill="#4ade80"/>
  <circle cx="380" cy="460" r="2.5" fill="#22d3ee"/>

  <!-- Bottom arc -->
  <path d="M200 490 A155 155 0 0 0 480 490" fill="none" stroke="#4ade80" stroke-width="1.5" stroke-linecap="round" opacity="0.4"/>

  <!-- Corner brackets -->
  <path d="M160 175 L148 175 L148 188" fill="none" stroke="#22d3ee" stroke-width="2" stroke-linecap="round"/>
  <path d="M520 175 L532 175 L532 188" fill="none" stroke="#22d3ee" stroke-width="2" stroke-linecap="round"/>
  <path d="M160 505 L148 505 L148 492" fill="none" stroke="#4ade80" stroke-width="2" stroke-linecap="round"/>
  <path d="M520 505 L532 505 L532 492" fill="none" stroke="#4ade80" stroke-width="2" stroke-linecap="round"/>
</svg>
